<?xml version="1.0" standalone="no"?>
<!DOCTYPE svg PUBLIC "-//W3C//DTD SVG 20010904//EN" "http://www.w3.org/TR/2001/REC-SVG-20010904/DTD/svg10.dtd">
<!-- Created using Krita: https://krita.org -->
<svg xmlns="http://www.w3.org/2000/svg" 
    xmlns:xlink="http://www.w3.org/1999/xlink"
    xmlns:krita="http://krita.org/namespaces/svg/krita"
    xmlns:sodipodi="http://sodipodi.sourceforge.net/DTD/sodipodi-0.dtd"
    width="44.64pt"
    height="57.36pt"
    viewBox="0 0 44.64 57.36">
<defs/>
<path id="shape0" transform="translate(3.38174040763418, 6.69654840679908)" fill="none" stroke="#2e2e2e" stroke-width="1.8648" stroke-linecap="square" stroke-linejoin="bevel" d="M38.6365 0.023452C16.4717 -0.033204 36.441 0.0316647 9.65647 0.023452C6.59149 4.16676 8.15135 3.11857 0.0564682 14.4235C0.00784839 21.3304 -0.0415445 17.0462 0.0564682 24.0235C6.97928 36.5954 0.781506 26.2056 8.09647 38.6035C26.9538 39.1075 11.208 38.6816 33.6565 38.4235C36.7818 35.7574 36.5903 36.4748 38.4565 33.6235C38.7 26.6848 38.5576 31.1934 38.4565 24.0235C35.8415 20.8923 36.365 22.0527 33.6565 19.2235C13.0069 19.2935 21.4712 19.2235 9.65647 19.2235" sodipodi:nodetypes="cccccccccc"/><path id="shape1" transform="translate(32.2382085484902, 1.92000046834359)" fill="none" stroke="#2e2e2e" stroke-width="1.8648" stroke-linecap="square" stroke-linejoin="bevel" d="M0 52.8C0 37.0021 0 16.7746 0 0" sodipodi:nodetypes="cc"/><path id="shape2" transform="translate(17.8382085484903, 1.92000046834359)" fill="none" stroke="#2e2e2e" stroke-width="1.8648" stroke-linecap="square" stroke-linejoin="bevel" d="M0 52.8C0 39.1597 0 13.0091 0 0" sodipodi:nodetypes="cc"/>
</svg>
