# Blender 4.0.2
# www.blender.org
mtllib Thunder.mtl
o thunder
v -1.412408 0.000000 1.412408
v 1.412408 0.000000 1.412408
v -1.412408 0.000000 -1.412408
v 1.412408 0.000000 -1.412408
v -0.221857 0.096880 0.041402
v 0.594656 0.084005 0.017538
v -0.274224 14.091510 1.159140
v 1.415321 14.111415 -0.003839
v -0.023678 13.026355 0.801139
v 0.255485 12.316140 0.588774
v 0.789264 11.639647 0.393837
v 1.093719 10.782619 0.220347
v 0.708838 10.080705 0.024200
v 0.070159 9.371383 0.212720
v 0.121106 8.575523 -0.512149
v -0.240200 7.834820 -0.385029
v -0.272254 7.087103 1.171693
v -0.708721 6.402882 0.685818
v -1.550974 5.748072 0.421110
v -1.995042 5.004132 0.743527
v -2.230703 4.047174 0.220047
v -2.072552 3.218170 0.251463
v -1.356378 2.498389 1.055337
v -1.136802 1.534708 0.645860
v -0.556097 0.546721 0.192730
v 0.604626 0.643443 0.022917
v 0.617474 1.442379 0.077614
v 0.499019 2.478179 0.479593
v 0.123217 3.296144 0.892535
v 0.296554 3.989478 1.072116
v -0.056390 4.671936 0.417353
v 0.455600 5.467873 0.278834
v 1.162576 6.281463 -0.544402
v 1.299387 7.042789 -0.865180
v 1.601677 7.868915 -0.446605
v 1.693370 8.735298 -0.099572
v 1.773156 9.608807 0.066155
v 2.424023 10.326052 -0.171424
v 2.702756 11.044888 -0.601147
v 2.600216 11.817669 -0.552882
v 2.082094 12.529207 -0.244941
v 1.436447 13.215025 0.066863
v 0.092343 -0.065882 -0.656027
v -0.000000 1.239773 -2.480728
v 0.220327 -0.065882 -0.643422
v 0.483966 1.239773 -2.433061
v 0.343393 -0.065882 -0.606090
v 0.949333 1.239773 -2.291893
v 0.456812 -0.065882 -0.545467
v 1.378219 1.239773 -2.062649
v 0.556224 -0.065882 -0.463881
v 1.754139 1.239773 -1.754139
v 0.637810 -0.065882 -0.364469
v 2.062649 1.239773 -1.378219
v 0.698433 -0.065882 -0.251051
v 2.291893 1.239773 -0.949333
v 0.735765 -0.065882 -0.127985
v 2.433061 1.239773 -0.483966
v 0.748370 -0.065882 -0.000000
v 2.480728 1.239773 0.000000
v 0.735765 -0.065882 0.127985
v 2.433061 1.239773 0.483966
v 0.698433 -0.065882 0.251051
v 2.291893 1.239773 0.949333
v 0.637810 -0.065882 0.364469
v 2.062649 1.239773 1.378219
v 0.556224 -0.065882 0.463881
v 1.754139 1.239773 1.754139
v 0.456812 -0.065882 0.545467
v 1.378219 1.239773 2.062649
v 0.343393 -0.065882 0.606090
v 0.949333 1.239773 2.291893
v 0.220327 -0.065882 0.643422
v 0.483966 1.239773 2.433061
v 0.092343 -0.065882 0.656027
v -0.000000 1.239773 2.480728
v -0.035642 -0.065882 0.643422
v -0.483966 1.239773 2.433061
v -0.158708 -0.065882 0.606090
v -0.949333 1.239773 2.291893
v -0.272127 -0.065882 0.545467
v -1.378219 1.239773 2.062649
v -0.371539 -0.065882 0.463881
v -1.754139 1.239773 1.754139
v -0.453124 -0.065882 0.364469
v -2.062649 1.239773 1.378219
v -0.513748 -0.065882 0.251051
v -2.291893 1.239773 0.949333
v -0.551080 -0.065882 0.127985
v -2.433061 1.239773 0.483966
v -0.563685 -0.065882 -0.000000
v -2.480728 1.239773 0.000000
v -0.551080 -0.065882 -0.127985
v -2.433061 1.239773 -0.483966
v -0.513748 -0.065882 -0.251051
v -2.291893 1.239773 -0.949333
v -0.453124 -0.065882 -0.364469
v -2.062649 1.239773 -1.378219
v -0.371539 -0.065882 -0.463881
v -1.754139 1.239773 -1.754139
v -0.272127 -0.065882 -0.545467
v -1.378219 1.239773 -2.062649
v -0.158708 -0.065882 -0.606090
v -0.949333 1.239773 -2.291893
v -0.035642 -0.065882 -0.643422
v -0.483966 1.239773 -2.433061
vn -0.0000 1.0000 -0.0000
vn 0.4846 -0.0518 0.8732
vn 0.4710 -0.0512 0.8806
vn 0.5178 -0.0533 0.8538
vn 0.1018 -0.1206 0.9875
vn 0.1762 -0.1598 0.9713
vn 0.1959 -0.1701 0.9658
vn 0.2577 -0.2510 0.9331
vn 0.2660 -0.2802 0.9223
vn 0.1758 -0.1211 0.9770
vn 0.1022 0.0168 0.9946
vn -0.1676 0.0688 0.9835
vn -0.2142 0.0144 0.9767
vn -0.2195 -0.0198 0.9754
vn -0.2115 -0.0130 0.9773
vn 0.0201 0.1379 0.9902
vn -0.0004 0.1277 0.9918
vn 0.2698 0.0751 0.9600
vn 0.2045 0.1420 0.9685
vn 0.5694 -0.2435 0.7852
vn 0.4795 -0.1418 0.8660
vn 0.5969 0.1023 0.7958
vn 0.6286 -0.0640 0.7751
vn 0.1601 0.1434 0.9766
vn 0.2639 0.2461 0.9326
vn -0.0493 -0.3254 0.9443
vn -0.0643 -0.2581 0.9640
vn 0.0384 -0.0212 0.9990
vn 0.0104 -0.2687 0.9632
vn 0.2352 0.0753 0.9690
vn 0.1303 0.1732 0.9762
vn 0.3990 0.0044 0.9170
vn 0.3719 0.0088 0.9282
vn 0.4522 -0.0011 0.8919
vn 0.4467 0.0023 0.8947
vn 0.4380 -0.0091 0.8989
vn 0.4365 -0.0303 0.8992
vn -0.0016 0.8132 0.5820
vn -0.1159 0.8105 0.5742
vn -0.1129 0.8105 0.5747
vn 0.0014 0.8133 0.5819
vn -0.2270 0.8078 0.5440
vn -0.2243 0.8078 0.5450
vn -0.3306 0.8053 0.4922
vn -0.3284 0.8053 0.4936
vn -0.4223 0.8030 0.4206
vn -0.4206 0.8031 0.4221
vn -0.4981 0.8011 0.3317
vn -0.4971 0.8012 0.3332
vn -0.5549 0.7997 0.2291
vn -0.5544 0.7998 0.2303
vn -0.5900 0.7989 0.1170
vn -0.5899 0.7989 0.1176
vn -0.6019 0.7986 -0.0000
vn -0.5900 0.7989 -0.1170
vn -0.5899 0.7989 -0.1176
vn -0.5549 0.7997 -0.2291
vn -0.5544 0.7998 -0.2303
vn -0.4981 0.8011 -0.3317
vn -0.4971 0.8012 -0.3332
vn -0.4223 0.8030 -0.4206
vn -0.4206 0.8031 -0.4221
vn -0.3306 0.8053 -0.4922
vn -0.3284 0.8053 -0.4936
vn -0.2270 0.8078 -0.5440
vn -0.2243 0.8078 -0.5450
vn -0.1159 0.8105 -0.5742
vn -0.1129 0.8105 -0.5747
vn -0.0016 0.8132 -0.5820
vn 0.0014 0.8133 -0.5819
vn 0.1113 0.8159 -0.5674
vn 0.1141 0.8160 -0.5667
vn 0.2185 0.8184 -0.5314
vn 0.2210 0.8185 -0.5303
vn 0.3163 0.8208 -0.4757
vn 0.3183 0.8208 -0.4743
vn 0.4012 0.8227 -0.4027
vn 0.4026 0.8228 -0.4012
vn 0.4702 0.8244 -0.3152
vn 0.4711 0.8244 -0.3139
vn 0.5212 0.8255 -0.2165
vn 0.5216 0.8256 -0.2155
vn 0.5524 0.8263 -0.1102
vn 0.5525 0.8263 -0.1096
vn 0.5629 0.8265 -0.0000
vn 0.5524 0.8263 0.1102
vn 0.5525 0.8263 0.1096
vn 0.5212 0.8255 0.2165
vn 0.5216 0.8256 0.2155
vn 0.4702 0.8244 0.3152
vn 0.4711 0.8244 0.3139
vn 0.4012 0.8227 0.4027
vn 0.4026 0.8228 0.4012
vn 0.3163 0.8208 0.4757
vn 0.3183 0.8208 0.4743
vn 0.2185 0.8184 0.5314
vn 0.2210 0.8185 0.5303
vn 0.1113 0.8159 0.5674
vn 0.1141 0.8160 0.5667
vt 0.000000 0.000000
vt 1.000000 0.000000
vt 1.000000 1.000000
vt 0.000000 1.000000
vt 0.000000 0.944444
vt 1.000000 0.944444
vt 1.000000 0.055556
vt 0.000000 0.055556
vt 1.000000 0.111111
vt 0.000000 0.111111
vt 1.000000 0.166667
vt 0.000000 0.166667
vt 1.000000 0.222222
vt 0.000000 0.222222
vt 1.000000 0.277778
vt 0.000000 0.277778
vt 1.000000 0.333333
vt 0.000000 0.333333
vt 1.000000 0.388889
vt 0.000000 0.388889
vt 1.000000 0.444444
vt 0.000000 0.444444
vt 1.000000 0.500000
vt 0.000000 0.500000
vt 1.000000 0.555556
vt 0.000000 0.555556
vt 1.000000 0.611111
vt 0.000000 0.611111
vt 1.000000 0.666667
vt 0.000000 0.666667
vt 1.000000 0.722222
vt 0.000000 0.722222
vt 1.000000 0.777778
vt 0.000000 0.777778
vt 1.000000 0.833333
vt 0.000000 0.833333
vt 1.000000 0.888889
vt 0.000000 0.888889
vt 0.968750 0.000000
vt 0.968750 1.000000
vt 0.937500 0.000000
vt 0.937500 1.000000
vt 0.906250 0.000000
vt 0.906250 1.000000
vt 0.875000 0.000000
vt 0.875000 1.000000
vt 0.843750 0.000000
vt 0.843750 1.000000
vt 0.812500 0.000000
vt 0.812500 1.000000
vt 0.781250 0.000000
vt 0.781250 1.000000
vt 0.750000 0.000000
vt 0.750000 1.000000
vt 0.718750 0.000000
vt 0.718750 1.000000
vt 0.687500 0.000000
vt 0.687500 1.000000
vt 0.656250 0.000000
vt 0.656250 1.000000
vt 0.625000 0.000000
vt 0.625000 1.000000
vt 0.593750 0.000000
vt 0.593750 1.000000
vt 0.562500 0.000000
vt 0.562500 1.000000
vt 0.531250 0.000000
vt 0.531250 1.000000
vt 0.500000 0.000000
vt 0.500000 1.000000
vt 0.468750 0.000000
vt 0.468750 1.000000
vt 0.437500 0.000000
vt 0.437500 1.000000
vt 0.406250 0.000000
vt 0.406250 1.000000
vt 0.375000 0.000000
vt 0.375000 1.000000
vt 0.343750 0.000000
vt 0.343750 1.000000
vt 0.312500 0.000000
vt 0.312500 1.000000
vt 0.281250 0.000000
vt 0.281250 1.000000
vt 0.250000 0.000000
vt 0.250000 1.000000
vt 0.218750 0.000000
vt 0.218750 1.000000
vt 0.187500 0.000000
vt 0.187500 1.000000
vt 0.156250 0.000000
vt 0.156250 1.000000
vt 0.125000 0.000000
vt 0.125000 1.000000
vt 0.093750 0.000000
vt 0.093750 1.000000
vt 0.062500 0.000000
vt 0.062500 1.000000
vt 0.031250 0.000000
vt 0.031250 1.000000
s 1
usemtl Material.003
f 1/1/1 2/2/1 4/3/1 3/4/1
usemtl Material.001
f 9/5/2 42/6/3 8/3/4 7/4/4
f 5/1/5 6/2/5 26/7/6 25/8/7
f 25/8/7 26/7/6 27/9/8 24/10/9
f 24/10/9 27/9/8 28/11/10 23/12/11
f 23/12/11 28/11/10 29/13/12 22/14/13
f 22/14/13 29/13/12 30/15/14 21/16/15
f 21/16/15 30/15/14 31/17/16 20/18/17
f 20/18/17 31/17/16 32/19/18 19/20/19
f 19/20/19 32/19/18 33/21/20 18/22/21
f 18/22/21 33/21/20 34/23/22 17/24/23
f 17/24/23 34/23/22 35/25/24 16/26/25
f 16/26/25 35/25/24 36/27/26 15/28/27
f 15/28/27 36/27/26 37/29/28 14/30/29
f 14/30/29 37/29/28 38/31/30 13/32/31
f 13/32/31 38/31/30 39/33/32 12/34/33
f 12/34/33 39/33/32 40/35/34 11/36/35
f 11/36/35 40/35/34 41/37/36 10/38/37
f 10/38/37 41/37/36 42/6/3 9/5/2
usemtl Material.002
f 43/2/38 45/39/39 46/40/40 44/3/41
f 45/39/39 47/41/42 48/42/43 46/40/40
f 47/41/42 49/43/44 50/44/45 48/42/43
f 49/43/44 51/45/46 52/46/47 50/44/45
f 51/45/46 53/47/48 54/48/49 52/46/47
f 53/47/48 55/49/50 56/50/51 54/48/49
f 55/49/50 57/51/52 58/52/53 56/50/51
f 57/51/52 59/53/54 60/54/54 58/52/53
f 59/53/54 61/55/55 62/56/56 60/54/54
f 61/55/55 63/57/57 64/58/58 62/56/56
f 63/57/57 65/59/59 66/60/60 64/58/58
f 65/59/59 67/61/61 68/62/62 66/60/60
f 67/61/61 69/63/63 70/64/64 68/62/62
f 69/63/63 71/65/65 72/66/66 70/64/64
f 71/65/65 73/67/67 74/68/68 72/66/66
f 73/67/67 75/69/69 76/70/70 74/68/68
f 75/69/69 77/71/71 78/72/72 76/70/70
f 77/71/71 79/73/73 80/74/74 78/72/72
f 79/73/73 81/75/75 82/76/76 80/74/74
f 81/75/75 83/77/77 84/78/78 82/76/76
f 83/77/77 85/79/79 86/80/80 84/78/78
f 85/79/79 87/81/81 88/82/82 86/80/80
f 87/81/81 89/83/83 90/84/84 88/82/82
f 89/83/83 91/85/85 92/86/85 90/84/84
f 91/85/85 93/87/86 94/88/87 92/86/85
f 93/87/86 95/89/88 96/90/89 94/88/87
f 95/89/88 97/91/90 98/92/91 96/90/89
f 97/91/90 99/93/92 100/94/93 98/92/91
f 99/93/92 101/95/94 102/96/95 100/94/93
f 101/95/94 103/97/96 104/98/97 102/96/95
f 103/97/96 105/99/98 106/100/99 104/98/97
f 105/99/98 43/1/38 44/4/41 106/100/99
