{
  "accessors": [
    {
      "bufferView": 2,
      "componentType": 5126,
      "count": 1181,
      "max": [
        1388.7205810546875,
        3545.71142578125,
        3859.826171875
      ],
      "min": [
        -7583.0283203125,
        -5234.505859375,
        -889.9371337890625
      ],
      "type": "VEC3"
    },
    {
      "bufferView": 2,
      "byteOffset": 14172,
      "componentType": 5126,
      "count": 1181,
      "max": [
        0.9993975758552551,
        0.9970756769180298,
        0.9992144107818604
      ],
      "min": [
        -0.9993912577629089,
        -0.9997324347496033,
        -0.9986041784286499
      ],
      "type": "VEC3"
    },
    {
      "bufferView": 3,
      "componentType": 5126,
      "count": 1181,
      "max": [
        0.9998756051063538,
        0.9985967874526978,
        0.9995282292366028,
        1.0
      ],
      "min": [
        -0.9956688284873962,
        -0.998706042766571,
        -0.9977589845657349,
        -1.0
      ],
      "type": "VEC4"
    },
    {
      "bufferView": 1,
      "componentType": 5126,
      "count": 1181,
      "max": [
        0.9272980690002441,
        0.9864404201507568
      ],
      "min": [
        0.01236729882657528,
        0.016946958377957344
      ],
      "type": "VEC2"
    },
    {
      "bufferView": 0,
      "componentType": 5125,
      "count": 5430,
      "type": "SCALAR"
    }
  ],
  "asset": {
    "extras": {
      "author": "3dAssetsForGames (https://sketchfab.com/3dAssatsForGames)",
      "license": "CC-BY-4.0 (http://creativecommons.org/licenses/by/4.0/)",
      "source": "https://sketchfab.com/3d-models/bonfire-free-download-6f61e3ee52594ba0a416b2eb30d40efe",
      "title": "Bonfire free download"
    },
    "generator": "Sketchfab-15.55.0",
    "version": "2.0"
  },
  "bufferViews": [
    {
      "buffer": 0,
      "byteLength": 21720,
      "name": "floatBufferViews",
      "target": 34963
    },
    {
      "buffer": 0,
      "byteLength": 9448,
      "byteOffset": 21720,
      "byteStride": 8,
      "name": "floatBufferViews",
      "target": 34962
    },
    {
      "buffer": 0,
      "byteLength": 28344,
      "byteOffset": 31168,
      "byteStride": 12,
      "name": "floatBufferViews",
      "target": 34962
    },
    {
      "buffer": 0,
      "byteLength": 18896,
      "byteOffset": 59512,
      "byteStride": 16,
      "name": "floatBufferViews",
      "target": 34962
    }
  ],
  "buffers": [
    {
      "byteLength": 78408,
      "uri": "scene.bin"
    }
  ],
  "images": [
    {
      "uri": "textures/Koster1_baseColor.png"
    },
    {
      "uri": "textures/Koster1_metallicRoughness.png"
    },
    {
      "uri": "textures/Koster1_normal.png"
    }
  ],
  "materials": [
    {
      "doubleSided": true,
      "name": "Koster1",
      "normalTexture": {
        "index": 2
      },
      "occlusionTexture": {
        "index": 1
      },
      "pbrMetallicRoughness": {
        "baseColorTexture": {
          "index": 0
        },
        "metallicRoughnessTexture": {
          "index": 1
        }
      }
    }
  ],
  "meshes": [
    {
      "name": "Koster_low_Koster1_0",
      "primitives": [
        {
          "attributes": {
            "NORMAL": 1,
            "POSITION": 0,
            "TANGENT": 2,
            "TEXCOORD_0": 3
          },
          "indices": 4,
          "material": 0,
          "mode": 4
        }
      ]
    }
  ],
  "nodes": [
    {
      "children": [
        1
      ],
      "matrix": [
        1.0,
        0.0,
        0.0,
        0.0,
        0.0,
        2.220446049250313e-16,
        -1.0,
        0.0,
        0.0,
        1.0,
        2.220446049250313e-16,
        0.0,
        0.0,
        0.0,
        0.0,
        1.0
      ],
      "name": "Sketchfab_model"
    },
    {
      "children": [
        2
      ],
      "matrix": [
        0.0010000000474974513,
        0.0,
        0.0,
        0.0,
        0.0,
        0.0,
        0.0010000000474974513,
        0.0,
        0.0,
        -0.0010000000474974513,
        0.0,
        0.0,
        0.0,
        0.0,
        0.0,
        1.0
      ],
      "name": "804b7c00de7044d4b8cdab7d4b298189.fbx"
    },
    {
      "children": [
        3
      ],
      "name": "RootNode"
    },
    {
      "children": [
        4
      ],
      "matrix": [
        0.1484520137310028,
        0.0,
        0.0,
        0.0,
        0.0,
        3.296296873922584e-17,
        -0.1484520137310028,
        0.0,
        0.0,
        0.1484520137310028,
        3.296296873922584e-17,
        0.0,
        -5389.14111328125,
        -10.971649169921875,
        512.0758056640625,
        1.0
      ],
      "name": "Koster_low"
    },
    {
      "children": [
        5
      ],
      "matrix": [
        1.0,
        0.0,
        -0.0,
        0.0,
        0.0,
        1.0,
        0.0,
        0.0,
        0.0,
        0.0,
        1.0,
        0.0,
        3097.154541015625,
        844.3968505859375,
        123.17578125,
        1.0
      ],
      "name": "Object_4"
    },
    {
      "mesh": 0,
      "name": "Koster_low_Koster1_0"
    }
  ],
  "samplers": [
    {
      "magFilter": 9729,
      "minFilter": 9987,
      "wrapS": 10497,
      "wrapT": 10497
    }
  ],
  "scene": 0,
  "scenes": [
    {
      "name": "Sketchfab_Scene",
      "nodes": [
        0
      ]
    }
  ],
  "textures": [
    {
      "sampler": 0,
      "source": 0
    },
    {
      "sampler": 0,
      "source": 1
    },
    {
      "sampler": 0,
      "source": 2
    }
  ]
}
