# Blender 4.0.2
# www.blender.org
mtllib Thunder_2.mtl
o lightninArc
v -0.234339 0.096880 0.041402
v 0.582173 0.084005 0.017538
v -0.286707 14.091510 1.159140
v 1.402838 14.111415 -0.003839
v -0.036161 13.026355 0.801139
v 0.243002 12.316140 0.588774
v 0.776782 11.639647 0.393837
v 1.081237 10.782619 0.220347
v 0.696355 10.080706 0.024200
v 0.057677 9.371384 0.212720
v 0.108623 8.575523 -0.512149
v -0.252683 7.834820 -0.385029
v -0.284736 7.087103 1.171693
v -0.721204 6.402882 0.685818
v -1.563457 5.748072 0.421110
v -2.007525 5.004132 0.743527
v -2.243186 4.047174 0.220047
v -2.085035 3.218170 0.251463
v -1.368861 2.498389 1.055337
v -1.149285 1.534708 0.645860
v -0.568579 0.546721 0.192730
v 0.592144 0.643443 0.022917
v 0.604991 1.442379 0.077614
v 0.486537 2.478179 0.479593
v 0.110734 3.296144 0.892535
v 0.284072 3.989478 1.072116
v -0.068873 4.671936 0.417353
v 0.443118 5.467874 0.278834
v 1.150093 6.281463 -0.544402
v 1.286905 7.042789 -0.865180
v 1.589194 7.868916 -0.446605
v 1.680888 8.735298 -0.099572
v 1.760673 9.608808 0.066155
v 2.411541 10.326052 -0.171424
v 2.690274 11.044888 -0.601147
v 2.587733 11.817669 -0.552882
v 2.069611 12.529207 -0.244941
v 1.423965 13.215026 0.066863
vn 0.4846 -0.0518 0.8732
vn 0.4710 -0.0512 0.8806
vn 0.5178 -0.0533 0.8538
vn 0.1018 -0.1206 0.9875
vn 0.1762 -0.1598 0.9713
vn 0.1959 -0.1701 0.9658
vn 0.2577 -0.2510 0.9331
vn 0.2660 -0.2802 0.9223
vn 0.1758 -0.1211 0.9770
vn 0.1022 0.0168 0.9946
vn -0.1676 0.0688 0.9835
vn -0.2142 0.0144 0.9767
vn -0.2195 -0.0198 0.9754
vn -0.2115 -0.0130 0.9773
vn 0.0201 0.1379 0.9902
vn -0.0004 0.1277 0.9918
vn 0.2698 0.0751 0.9600
vn 0.2045 0.1420 0.9685
vn 0.5694 -0.2435 0.7852
vn 0.4795 -0.1418 0.8660
vn 0.5969 0.1023 0.7958
vn 0.6286 -0.0640 0.7751
vn 0.1601 0.1434 0.9766
vn 0.2639 0.2461 0.9326
vn -0.0493 -0.3254 0.9443
vn -0.0643 -0.2581 0.9640
vn 0.0384 -0.0212 0.9990
vn 0.0104 -0.2687 0.9632
vn 0.2352 0.0753 0.9690
vn 0.1303 0.1732 0.9762
vn 0.3990 0.0044 0.9170
vn 0.3719 0.0088 0.9282
vn 0.4522 -0.0011 0.8919
vn 0.4467 0.0023 0.8947
vn 0.4380 -0.0091 0.8989
vn 0.4365 -0.0303 0.8992
vt 0.000000 0.944444
vt 1.000000 0.944444
vt 1.000000 1.000000
vt 0.000000 1.000000
vt 0.000000 0.000000
vt 1.000000 0.000000
vt 1.000000 0.055556
vt 0.000000 0.055556
vt 1.000000 0.111111
vt 0.000000 0.111111
vt 1.000000 0.166667
vt 0.000000 0.166667
vt 1.000000 0.222222
vt 0.000000 0.222222
vt 1.000000 0.277778
vt 0.000000 0.277778
vt 1.000000 0.333333
vt 0.000000 0.333333
vt 1.000000 0.388889
vt 0.000000 0.388889
vt 1.000000 0.444444
vt 0.000000 0.444444
vt 1.000000 0.500000
vt 0.000000 0.500000
vt 1.000000 0.555556
vt 0.000000 0.555556
vt 1.000000 0.611111
vt 0.000000 0.611111
vt 1.000000 0.666667
vt 0.000000 0.666667
vt 1.000000 0.722222
vt 0.000000 0.722222
vt 1.000000 0.777778
vt 0.000000 0.777778
vt 1.000000 0.833333
vt 0.000000 0.833333
vt 1.000000 0.888889
vt 0.000000 0.888889
s 1
usemtl Material.001
f 5/1/1 38/2/2 4/3/3 3/4/3
f 1/5/4 2/6/4 22/7/5 21/8/6
f 21/8/6 22/7/5 23/9/7 20/10/8
f 20/10/8 23/9/7 24/11/9 19/12/10
f 19/12/10 24/11/9 25/13/11 18/14/12
f 18/14/12 25/13/11 26/15/13 17/16/14
f 17/16/14 26/15/13 27/17/15 16/18/16
f 16/18/16 27/17/15 28/19/17 15/20/18
f 15/20/18 28/19/17 29/21/19 14/22/20
f 14/22/20 29/21/19 30/23/21 13/24/22
f 13/24/22 30/23/21 31/25/23 12/26/24
f 12/26/24 31/25/23 32/27/25 11/28/26
f 11/28/26 32/27/25 33/29/27 10/30/28
f 10/30/28 33/29/27 34/31/29 9/32/30
f 9/32/30 34/31/29 35/33/31 8/34/32
f 8/34/32 35/33/31 36/35/33 7/36/34
f 7/36/34 36/35/33 37/37/35 6/38/36
f 6/38/36 37/37/35 38/2/2 5/1/1
