# Blender 3.6.0
# www.blender.org
mtllib ProjectileMesh02.mtl
o BezierCurve.001
v -0.000000 -0.328929 -0.664587
v -0.000000 0.328929 -0.664586
v -0.537276 -0.328929 -0.739569
v -0.537276 0.328929 -0.739569
v -1.215413 -0.328929 -0.886294
v -1.215413 0.328929 -0.886293
v -1.695689 -0.328929 -1.206774
v -1.695689 0.328929 -1.206773
v -2.063595 -0.328929 -1.725909
v -2.063596 0.328929 -1.725909
v -2.359284 0.000000 -2.468600
v -2.092697 -0.243237 -0.572826
v -1.980473 0.000000 0.220335
v -2.092697 0.243237 -0.572826
v -1.649082 -0.256848 -0.053691
v -1.461096 0.000000 0.739471
v -1.649082 0.256848 -0.053690
v 0.000000 -0.275246 0.488497
v 0.000000 0.000000 1.281658
v 0.000000 0.275246 0.488497
v -2.382866 0.000000 -1.315517
v -2.391541 0.000000 -0.522356
v -0.502567 -0.275246 0.413514
v -0.475888 0.000000 1.206676
v -0.502566 0.275246 0.413514
v -1.150015 -0.269113 0.266789
v -1.015043 0.000000 1.059951
v -1.150015 0.269113 0.266790
v 0.537276 -0.328929 -0.739569
v 0.537276 0.328929 -0.739569
v 1.215413 -0.328929 -0.886294
v 1.215412 0.328929 -0.886294
v 1.695689 -0.328929 -1.206774
v 1.695689 0.328929 -1.206774
v 2.063595 -0.328929 -1.725910
v 2.063595 0.328929 -1.725909
v 2.359283 0.000000 -2.468600
v 2.092697 -0.243237 -0.572827
v 1.980473 0.000000 0.220335
v 2.092697 0.243237 -0.572826
v 1.649082 -0.256848 -0.053691
v 1.461096 0.000000 0.739470
v 1.649082 0.256848 -0.053691
v 2.382865 0.000000 -1.315518
v 2.391541 0.000000 -0.522356
v 0.502567 -0.275246 0.413514
v 0.475888 0.000000 1.206675
v 0.502567 0.275246 0.413514
v 1.150015 -0.269113 0.266789
v 1.015044 0.000000 1.059951
v 1.150015 0.269113 0.266789
v -0.000000 -0.328929 -6.022252
v -0.000000 0.328929 -6.022251
v -0.537276 -0.328929 -6.097235
v -0.537276 0.328929 -6.097234
v -1.215413 -0.328929 -6.243959
v -1.215413 0.328929 -6.243959
v -1.695689 -0.328929 -6.564439
v -1.695689 0.328929 -6.564438
v -2.063595 -0.328929 -7.083574
v -2.063596 0.328929 -7.083574
v -2.359283 0.000000 -7.826265
v 0.537276 -0.328929 -6.097235
v 0.537276 0.328929 -6.097234
v 1.215412 -0.328929 -6.243959
v 1.215412 0.328929 -6.243959
v 1.695689 -0.328929 -6.564440
v 1.695689 0.328929 -6.564439
v 2.063595 -0.328929 -7.083575
v 2.063595 0.328929 -7.083575
v 2.359283 0.000000 -7.826266
vn -0.0000 -0.9793 0.2025
vn -0.0419 -0.9801 0.1943
vn -0.0060 -0.9997 0.0248
vn -0.0000 -0.9997 0.0254
vn -0.1210 -0.9686 0.2174
vn -0.0214 -0.9993 0.0313
vn -0.2245 -0.9492 0.2206
vn -0.0504 -0.9980 0.0370
vn -0.4126 -0.9005 0.1375
vn -0.3931 -0.9194 0.0120
vn -0.9999 -0.0000 0.0104
vn -1.0000 -0.0000 0.0023
vn -0.3931 0.9194 0.0120
vn -0.4126 0.9005 0.1375
vn -0.9716 -0.0000 0.2365
vn -0.7725 -0.0000 0.6350
vn -0.0504 0.9980 0.0370
vn -0.2245 0.9492 0.2206
vn -0.6218 -0.0000 0.7832
vn -0.0214 0.9993 0.0313
vn -0.1210 0.9686 0.2174
vn -0.3714 -0.0000 0.9285
vn -0.0060 0.9997 0.0248
vn -0.0419 0.9801 0.1943
vn -0.1957 -0.0000 0.9807
vn -0.0000 0.9997 0.0254
vn -0.0000 0.9793 0.2025
vn -0.0000 -0.0000 1.0000
vn 0.0060 -0.9997 0.0248
vn 0.0419 -0.9801 0.1943
vn 0.0214 -0.9993 0.0313
vn 0.1210 -0.9686 0.2174
vn 0.0504 -0.9980 0.0370
vn 0.2245 -0.9492 0.2206
vn 0.3931 -0.9194 0.0120
vn 0.4126 -0.9005 0.1375
vn 1.0000 -0.0000 0.0023
vn 0.9999 -0.0000 0.0104
vn 0.3931 0.9194 0.0120
vn 0.4126 0.9005 0.1375
vn 0.9716 -0.0000 0.2365
vn 0.7725 -0.0000 0.6350
vn 0.0504 0.9980 0.0370
vn 0.2245 0.9492 0.2206
vn 0.6218 -0.0000 0.7832
vn 0.0214 0.9993 0.0313
vn 0.1210 0.9686 0.2174
vn 0.3714 -0.0000 0.9285
vn 0.0060 0.9997 0.0248
vn 0.0419 0.9801 0.1943
vn 0.1957 -0.0000 0.9807
vn -0.6348 -0.7727 -0.0000
vn -0.0000 -1.0000 -0.0000
vn 1.0000 -0.0000 -0.0000
vn 0.6348 0.7727 -0.0000
vn -0.6348 0.7727 -0.0000
vn -1.0000 -0.0000 -0.0000
vn -0.0000 1.0000 -0.0000
vn 0.6348 -0.7727 -0.0000
vt 0.499967 0.892848
vt 0.400015 0.883784
vt 0.400015 0.828769
vt 0.499967 0.837834
vt 0.300062 0.862218
vt 0.300062 0.807177
vt 0.200110 0.823743
vt 0.200110 0.768712
vt 0.100157 0.766610
vt 0.100157 0.711532
vt 0.000000 0.695668
vt 0.000000 0.640625
vt 0.000000 0.694824
vt 0.100157 0.765732
vt 0.000000 1.000000
vt 0.100157 1.000000
vt 0.200110 0.822911
vt 0.200110 1.000000
vt 0.300062 0.861473
vt 0.300062 1.000000
vt 0.400015 0.883015
vt 0.400015 1.000000
vt 0.499967 0.892046
vt 0.499967 1.000000
vt 0.500238 0.892848
vt 0.500238 0.837834
vt 0.600190 0.828769
vt 0.600190 0.883784
vt 0.700143 0.807177
vt 0.700143 0.862218
vt 0.800095 0.768712
vt 0.800095 0.823743
vt 0.900048 0.711532
vt 0.900048 0.766610
vt 1.000000 0.640659
vt 1.000000 0.695702
vt 0.900048 0.765732
vt 1.000000 0.694858
vt 1.000000 1.000000
vt 0.900048 1.000000
vt 0.800095 0.822911
vt 0.800095 1.000000
vt 0.700143 0.861473
vt 0.700143 1.000000
vt 0.600190 0.883015
vt 0.600190 1.000000
vt 0.500238 0.892046
vt 0.500238 1.000000
vt 0.100157 0.070908
vt 0.200110 0.128087
vt 1.000000 0.000034
vt 0.900048 0.070908
vt 0.000000 0.000000
vt 0.800095 0.128087
vt 0.700143 0.166552
vt 0.400015 0.188144
vt 0.499967 0.197210
vt 0.500238 0.197210
vt 0.600190 0.188144
vt 0.300062 0.166552
s 1
f 18/1/1 23/2/2 3/3/3 1/4/4
f 23/2/2 26/5/5 5/6/6 3/3/3
f 26/5/5 15/7/7 7/8/8 5/6/6
f 15/7/7 12/9/9 9/10/10 7/8/8
f 12/9/9 21/11/11 11/12/12 9/10/10
f 10/10/13 11/12/12 21/13/11 14/14/14
f 14/14/14 22/15/15 13/16/16
f 13/16/16 22/15/15 12/9/9
f 8/8/17 10/10/13 14/14/14 17/17/18
f 17/17/18 14/14/14 13/16/16 16/18/19
f 16/18/19 13/16/16 12/9/9 15/7/7
f 6/6/20 8/8/17 17/17/18 28/19/21
f 28/19/21 17/17/18 16/18/19 27/20/22
f 27/20/22 16/18/19 15/7/7 26/5/5
f 4/3/23 6/6/20 28/19/21 25/21/24
f 25/21/24 28/19/21 27/20/22 24/22/25
f 24/22/25 27/20/22 26/5/5 23/2/2
f 2/4/26 4/3/23 25/21/24 20/23/27
f 20/23/27 25/21/24 24/22/25 19/24/28
f 19/24/28 24/22/25 23/2/2 18/1/1
f 18/25/1 1/26/4 29/27/29 46/28/30
f 46/28/30 29/27/29 31/29/31 49/30/32
f 49/30/32 31/29/31 33/31/33 41/32/34
f 41/32/34 33/31/33 35/33/35 38/34/36
f 38/34/36 35/33/35 37/35/37 44/36/38
f 36/33/39 40/37/40 44/38/38 37/35/37
f 40/37/40 45/39/41 44/38/38
f 39/40/42 38/34/36 45/39/41
f 34/31/43 43/41/44 40/37/40 36/33/39
f 43/41/44 42/42/45 39/40/42 40/37/40
f 42/42/45 41/32/34 38/34/36 39/40/42
f 32/29/46 51/43/47 43/41/44 34/31/43
f 51/43/47 50/44/48 42/42/45 43/41/44
f 50/44/48 49/30/32 41/32/34 42/42/45
f 30/27/49 48/45/50 51/43/47 32/29/46
f 48/45/50 47/46/51 50/44/48 51/43/47
f 47/46/51 46/28/30 49/30/32 50/44/48
f 2/26/26 20/47/27 48/45/50 30/27/49
f 20/47/27 19/48/28 47/46/51 48/45/50
f 19/48/28 18/25/1 46/28/30 47/46/51
f 7/8/8 9/10/10 60/49/52 58/50/53
f 36/33/39 37/35/37 71/51/54 70/52/55
f 11/12/12 10/10/13 61/49/56 62/53/57
f 32/29/46 34/31/43 68/54/58 66/55/58
f 10/10/13 8/8/17 59/50/58 61/49/56
f 1/4/4 3/3/3 54/56/53 52/57/53
f 35/33/35 33/31/33 67/54/53 69/52/59
f 9/10/10 11/12/12 62/53/57 60/49/52
f 4/3/23 2/4/26 53/57/58 55/56/58
f 34/31/43 36/33/39 70/52/55 68/54/58
f 29/27/29 1/26/4 52/58/53 63/59/53
f 3/3/3 5/6/6 56/60/53 54/56/53
f 37/35/37 35/33/35 69/52/59 71/51/54
f 2/26/26 30/27/49 64/59/58 53/58/58
f 6/6/20 4/3/23 55/56/58 57/60/58
f 31/29/31 29/27/29 63/59/53 65/55/53
f 5/6/6 7/8/8 58/50/53 56/60/53
f 30/27/49 32/29/46 66/55/58 64/59/58
f 8/8/17 6/6/20 57/60/58 59/50/58
f 33/31/33 31/29/31 65/55/53 67/54/53
f 45/39/41 40/37/40 39/40/42
f 22/15/15 14/14/14 21/13/11
f 45/39/41 38/34/36 44/36/38
f 12/9/9 22/15/15 21/11/11
