# Blender 4.2.2 LTS
# www.blender.org
mtllib SwordTrail.mtl
o SwordTrail
v 1.000000 0.000000 -0.459560
v 1.000000 0.000000 -0.459560
v 0.867965 -0.019369 -0.328414
v 0.867965 0.019369 -0.328414
v 0.723156 -0.028685 -0.190999
v 0.723156 0.028685 -0.190999
v 0.567517 -0.040745 -0.056348
v 0.567517 0.040745 -0.056348
v 0.402989 -0.045233 0.066503
v 0.402989 0.045233 0.066503
v 0.231517 -0.049158 0.168522
v 0.231517 0.049158 0.168522
v 0.055044 -0.048734 0.240672
v 0.055044 0.048734 0.240672
v -0.124487 -0.055441 0.273921
v -0.124487 0.055441 0.273921
v -0.305133 -0.055852 0.259234
v -0.305133 0.055852 0.259234
v -0.484951 -0.053823 0.187576
v -0.484951 0.053823 0.187576
v -0.661996 -0.038097 0.049914
v -0.661996 0.038097 0.049914
v -0.834327 -0.029221 -0.162787
v -0.834327 0.029221 -0.162787
v -1.000000 0.000000 -0.459561
v -1.000000 0.000000 -0.459561
v 1.000000 0.000000 -0.428133
v 0.867965 0.000000 -0.137576
v 0.055044 0.000000 0.666073
v -0.834327 0.000000 0.114589
v 0.231517 0.000000 0.573427
v -0.661996 0.000000 0.445710
v 0.723156 0.000000 0.090932
v -0.124487 0.000000 0.719818
v -1.000000 0.000000 -0.425856
v 0.567516 0.000000 0.275683
v -0.305133 0.000000 0.696021
v 0.402989 0.000000 0.455468
v -0.484951 0.000000 0.601591
v 1.000000 0.000000 -1.724360
v 1.000000 0.000000 -1.724360
v 0.867966 -0.019369 -1.593214
v 0.867966 0.019369 -1.593214
v 0.723157 -0.028685 -1.455798
v 0.723157 0.028685 -1.455798
v 0.567517 -0.040745 -1.321148
v 0.567517 0.040745 -1.321148
v 0.402989 -0.045233 -1.198296
v 0.402989 0.045233 -1.198296
v 0.231517 -0.049158 -1.096278
v 0.231517 0.049158 -1.096278
v 0.055044 -0.048734 -1.024127
v 0.055044 0.048734 -1.024127
v -0.124487 -0.055441 -0.990879
v -0.124487 0.055441 -0.990879
v -0.305133 -0.055852 -1.005566
v -0.305133 0.055852 -1.005566
v -0.484950 -0.053823 -1.077223
v -0.484950 0.053823 -1.077223
v -0.661996 -0.038097 -1.214886
v -0.661996 0.038097 -1.214886
v -0.834327 -0.029221 -1.427587
v -0.834327 0.029221 -1.427587
v -0.999999 0.000000 -1.724361
v -0.999999 0.000000 -1.724361
vn 0.1610 -0.9867 0.0215
vn 0.1610 0.9867 0.0215
vn 0.1402 -0.9891 0.0448
vn 0.1402 0.9891 0.0448
vn 0.1159 -0.9919 0.0523
vn 0.1159 0.9919 0.0523
vn 0.0935 -0.9939 0.0579
vn 0.0935 0.9939 0.0579
vn 0.0689 -0.9958 0.0609
vn 0.0689 0.9958 0.0609
vn 0.0422 -0.9972 0.0616
vn 0.0422 0.9972 0.0616
vn 0.0371 -0.9973 0.0628
vn 0.0371 0.9973 0.0628
vn 0.0188 -0.9976 0.0661
vn 0.0188 0.9976 0.0661
vn -0.0245 -0.9973 0.0694
vn -0.0245 0.9973 0.0694
vn -0.0770 -0.9950 0.0640
vn -0.0770 0.9950 0.0640
vn -0.1273 -0.9903 0.0547
vn -0.1273 0.9903 0.0547
vn -0.1837 -0.9818 0.0481
vn -0.1837 0.9818 0.0481
vn -0.1962 -0.9805 0.0146
vn -0.1962 0.9805 0.0146
vn 0.9252 -0.0000 0.3794
vn 0.8604 -0.0000 0.5096
vn 0.3871 -0.0000 0.9220
vn -0.8939 -0.0000 0.4483
vn 0.4803 -0.0000 0.8771
vn -0.7965 -0.0000 0.6047
vn 0.8148 -0.0000 0.5797
vn 0.1284 -0.0000 0.9917
vn -0.9608 -0.0000 0.2772
vn 0.7421 -0.0000 0.6702
vn -0.2507 -0.0000 0.9681
vn 0.6312 -0.0000 0.7757
vn -0.5718 -0.0000 0.8204
vn 0.1451 -0.9894 -0.0000
vn 0.1451 0.9894 -0.0000
vn 0.1244 -0.9922 -0.0000
vn 0.1244 0.9922 -0.0000
vn 0.0677 -0.9977 -0.0000
vn 0.0677 0.9977 -0.0000
vn 0.0628 -0.9980 -0.0000
vn 0.0628 0.9980 -0.0000
vn 0.0259 -0.9997 -0.0000
vn 0.0259 0.9997 -0.0000
vn 0.0138 -0.9999 -0.0000
vn 0.0138 0.9999 -0.0000
vn 0.0141 -0.9999 -0.0000
vn 0.0141 0.9999 -0.0000
vn 0.0203 -0.9998 -0.0000
vn 0.0203 0.9998 -0.0000
vn -0.0054 -1.0000 -0.0000
vn -0.0054 1.0000 -0.0000
vn -0.0616 -0.9981 -0.0000
vn -0.0616 0.9981 -0.0000
vn -0.0615 -0.9981 -0.0000
vn -0.0615 0.9981 -0.0000
vn -0.1487 -0.9889 -0.0000
vn -0.1487 0.9889 -0.0000
vn -0.1737 -0.9848 -0.0000
vn -0.1737 0.9848 -0.0000
vt 0.996399 1.000000
vt 0.918034 1.000000
vt 0.919834 0.819902
vt 0.998200 0.819902
vt 0.839496 1.000000
vt 0.841296 0.819902
vt 0.761231 1.000000
vt 0.763032 0.819902
vt 0.683038 1.000000
vt 0.684838 0.819902
vt 0.609163 1.000000
vt 0.610964 0.819902
vt 0.538553 1.000000
vt 0.540353 0.819902
vt 0.471149 1.000000
vt 0.472950 0.819902
vt 0.404558 1.000000
vt 0.406358 0.819902
vt 0.332809 1.000000
vt 0.334610 0.819902
vt 0.249482 1.000000
vt 0.251283 0.819902
vt 0.141660 1.000000
vt 0.143460 0.819902
vt 0.000000 1.000000
vt 0.001800 0.819902
vt 0.684838 0.014765
vt 0.610964 0.014765
vt 0.843097 0.014765
vt 0.921635 0.014765
vt 0.406358 0.014765
vt 0.334610 0.014765
vt 0.542154 0.014765
vt 0.612764 0.014765
vt 0.919834 0.014765
vt 0.841296 0.014765
vt 0.253083 0.014765
vt 0.336410 0.014765
vt 0.540353 0.014765
vt 0.764832 0.014765
vt 0.251283 0.014765
vt 0.474750 0.014765
vt 0.763032 0.014765
vt 0.145261 0.014765
vt 0.472950 0.014765
vt 0.686638 0.014765
vt 0.143460 0.014765
vt 0.408159 0.014765
vt 0.003601 0.014765
vt 1.000000 0.014765
vt 0.001800 0.014765
vt 0.998200 0.014765
s 1
f 27/1/27 28/2/28 3/3/3 1/4/1
f 28/2/28 33/5/33 5/6/5 3/3/3
f 33/5/33 36/7/36 7/8/7 5/6/5
f 36/7/36 38/9/38 9/10/9 7/8/7
f 38/9/38 31/11/31 11/12/11 9/10/9
f 31/11/31 29/13/29 13/14/13 11/12/11
f 29/13/29 34/15/34 15/16/15 13/14/13
f 34/15/34 37/17/37 17/18/17 15/16/15
f 37/17/37 39/19/39 19/20/19 17/18/17
f 39/19/39 32/21/32 21/22/21 19/20/19
f 32/21/32 30/23/30 23/24/23 21/22/21
f 30/23/30 35/25/35 25/26/25 23/24/23
f 24/24/24 26/26/26 35/25/35 30/23/30
f 22/22/22 24/24/24 30/23/30 32/21/32
f 20/20/20 22/22/22 32/21/32 39/19/39
f 18/18/18 20/20/20 39/19/39 37/17/37
f 16/16/16 18/18/18 37/17/37 34/15/34
f 14/14/14 16/16/16 34/15/34 29/13/29
f 12/12/12 14/14/14 29/13/29 31/11/31
f 10/10/10 12/12/12 31/11/31 38/9/38
f 8/8/8 10/10/10 38/9/38 36/7/36
f 6/6/6 8/8/8 36/7/36 33/5/33
f 4/3/4 6/6/6 33/5/33 28/2/28
f 2/4/2 4/3/4 28/2/28 27/1/27
f 12/12/12 10/10/10 49/27/49 51/28/51
f 3/3/3 5/6/5 44/29/44 42/30/42
f 20/20/20 18/18/18 57/31/57 59/32/59
f 11/12/11 13/14/13 52/33/52 50/34/50
f 6/6/6 4/3/4 43/35/43 45/36/45
f 19/20/19 21/22/21 60/37/60 58/38/58
f 14/14/14 12/12/12 51/28/51 53/39/53
f 5/6/5 7/8/7 46/40/46 44/29/44
f 22/22/22 20/20/20 59/32/59 61/41/61
f 13/14/13 15/16/15 54/42/54 52/33/52
f 8/8/8 6/6/6 45/36/45 47/43/47
f 21/22/21 23/24/23 62/44/62 60/37/60
f 16/16/16 14/14/14 53/39/53 55/45/55
f 7/8/7 9/10/9 48/46/48 46/40/46
f 24/24/24 22/22/22 61/41/61 63/47/63
f 15/16/15 17/18/17 56/48/56 54/42/54
f 10/10/10 8/8/8 47/43/47 49/27/49
f 23/24/23 25/26/25 64/49/64 62/44/62
f 1/4/1 3/3/3 42/30/42 40/50/40
f 18/18/18 16/16/16 55/45/55 57/31/57
f 9/10/9 11/12/11 50/34/50 48/46/48
f 26/26/26 24/24/24 63/47/63 65/51/65
f 4/3/4 2/4/2 41/52/41 43/35/43
f 17/18/17 19/20/19 58/38/58 56/48/56
