# Blender 4.2.2 LTS
# www.blender.org
mtllib SwordSlash.mtl
o SwordSlash
v 1.000000 0.000000 -0.459560
v 1.000000 0.000000 -0.459560
v 0.867965 -0.019369 -0.328414
v 0.867965 0.019369 -0.328414
v 0.723156 -0.028685 -0.190999
v 0.723156 0.028685 -0.190999
v 0.567517 -0.040745 -0.056348
v 0.567517 0.040745 -0.056348
v 0.402989 -0.045233 0.066503
v 0.402989 0.045233 0.066503
v 0.231517 -0.049158 0.168522
v 0.231517 0.049158 0.168522
v 0.055044 -0.048734 0.240672
v 0.055044 0.048734 0.240672
v -0.124487 -0.055441 0.273921
v -0.124487 0.055441 0.273921
v -0.305133 -0.055852 0.259234
v -0.305133 0.055852 0.259234
v -0.484951 -0.053823 0.187576
v -0.484951 0.053823 0.187576
v -0.661996 -0.038097 0.049914
v -0.661996 0.038097 0.049914
v -0.834327 -0.029221 -0.162787
v -0.834327 0.029221 -0.162787
v -1.000000 0.000000 -0.459561
v -1.000000 0.000000 -0.459561
v 1.000000 0.000000 -0.428133
v 0.867965 0.000000 -0.137576
v 0.055044 0.000000 0.666073
v -0.834327 0.000000 0.114589
v 0.231517 0.000000 0.573427
v -0.661996 0.000000 0.445710
v 0.723156 0.000000 0.090932
v -0.124487 0.000000 0.719818
v -1.000000 0.000000 -0.425856
v 0.567516 0.000000 0.275683
v -0.305133 0.000000 0.696021
v 0.402989 0.000000 0.455468
v -0.484951 0.000000 0.601591
vn 0.2071 -0.9746 0.0849
vn 0.2071 0.9746 0.0849
vn 0.1943 -0.9769 0.0889
vn 0.1943 0.9769 0.0889
vn 0.1562 -0.9823 0.1029
vn 0.1562 0.9823 0.1029
vn 0.1431 -0.9832 0.1130
vn 0.1431 0.9832 0.1130
vn 0.1104 -0.9869 0.1176
vn 0.1104 0.9869 0.1176
vn 0.0747 -0.9903 0.1174
vn 0.0747 0.9903 0.1174
vn 0.0508 -0.9918 0.1176
vn 0.0508 0.9918 0.1176
vn 0.0184 -0.9924 0.1218
vn 0.0184 0.9924 0.1218
vn -0.0418 -0.9911 0.1265
vn -0.0418 0.9911 0.1265
vn -0.1112 -0.9868 0.1174
vn -0.1112 0.9868 0.1174
vn -0.1678 -0.9806 0.1017
vn -0.1678 0.9806 0.1017
vn -0.2816 -0.9552 0.0910
vn -0.2816 0.9552 0.0910
vn -0.3083 -0.9471 0.0890
vn -0.3083 0.9471 0.0890
vn 0.9252 -0.0000 0.3794
vn 0.8604 -0.0000 0.5096
vn 0.3871 -0.0000 0.9220
vn -0.8939 -0.0000 0.4483
vn 0.4803 -0.0000 0.8771
vn -0.7965 -0.0000 0.6047
vn 0.8148 -0.0000 0.5797
vn 0.1284 -0.0000 0.9917
vn -0.9608 -0.0000 0.2772
vn 0.7421 -0.0000 0.6702
vn -0.2507 -0.0000 0.9681
vn 0.6312 -0.0000 0.7757
vn -0.5718 -0.0000 0.8204
vt 1.000000 0.000000
vt 1.000000 0.083333
vt 0.027069 0.083333
vt 0.027069 0.000000
vt 1.000000 0.166667
vt 0.027069 0.166667
vt 1.000000 0.250000
vt 0.027069 0.250000
vt 1.000000 0.333333
vt 0.027069 0.333333
vt 1.000000 0.416667
vt 0.027069 0.416667
vt 1.000000 0.500000
vt 0.027069 0.500000
vt 1.000000 0.583333
vt 0.027069 0.583333
vt 1.000000 0.666667
vt 0.027069 0.666667
vt 1.000000 0.750000
vt 0.027069 0.750000
vt 1.000000 0.833333
vt 0.027069 0.833333
vt 1.000000 0.916667
vt 0.027069 0.916667
vt 1.000000 1.000000
vt 0.027069 1.000000
vt 0.027069 0.916667
vt 0.027069 1.000000
vt 0.027069 0.833333
vt 0.027069 0.750000
vt 0.027069 0.666667
vt 0.027069 0.583333
vt 0.027069 0.500000
vt 0.027069 0.416667
vt 0.027069 0.333333
vt 0.027069 0.250000
vt 0.027069 0.166667
vt 0.027069 0.083333
vt 0.027069 0.000000
s 1
f 27/1/27 28/2/28 3/3/3 1/4/1
f 28/2/28 33/5/33 5/6/5 3/3/3
f 33/5/33 36/7/36 7/8/7 5/6/5
f 36/7/36 38/9/38 9/10/9 7/8/7
f 38/9/38 31/11/31 11/12/11 9/10/9
f 31/11/31 29/13/29 13/14/13 11/12/11
f 29/13/29 34/15/34 15/16/15 13/14/13
f 34/15/34 37/17/37 17/18/17 15/16/15
f 37/17/37 39/19/39 19/20/19 17/18/17
f 39/19/39 32/21/32 21/22/21 19/20/19
f 32/21/32 30/23/30 23/24/23 21/22/21
f 30/23/30 35/25/35 25/26/25 23/24/23
f 24/27/24 26/28/26 35/25/35 30/23/30
f 22/29/22 24/27/24 30/23/30 32/21/32
f 20/30/20 22/29/22 32/21/32 39/19/39
f 18/31/18 20/30/20 39/19/39 37/17/37
f 16/32/16 18/31/18 37/17/37 34/15/34
f 14/33/14 16/32/16 34/15/34 29/13/29
f 12/34/12 14/33/14 29/13/29 31/11/31
f 10/35/10 12/34/12 31/11/31 38/9/38
f 8/36/8 10/35/10 38/9/38 36/7/36
f 6/37/6 8/36/8 36/7/36 33/5/33
f 4/38/4 6/37/6 33/5/33 28/2/28
f 2/39/2 4/38/4 28/2/28 27/1/27
