# Blender 4.0.2
# www.blender.org
mtllib SwordSlash.mtl
o BezierCurve
v -0.481425 0.000000 -1.000000
v -0.373125 -0.019098 -0.865841
v -0.373125 0.019098 -0.865841
v -0.233428 -0.048848 -0.715433
v -0.233428 0.048848 -0.715433
v -0.095552 -0.067210 -0.551876
v -0.095552 0.067210 -0.551876
v 0.030998 -0.088154 -0.378273
v 0.030998 0.088154 -0.378273
v 0.136714 -0.101521 -0.197726
v 0.136714 0.101521 -0.197726
v 0.212091 -0.104177 -0.013336
v 0.212091 0.104177 -0.013336
v 0.247621 -0.101368 0.171795
v 0.247621 0.101368 0.171795
v 0.233799 -0.082967 0.354565
v 0.233799 0.082967 0.354565
v 0.161119 -0.068578 0.531872
v 0.161119 0.068578 0.531872
v 0.020074 -0.043418 0.700615
v 0.020074 0.043418 0.700615
v -0.198843 -0.028878 0.857692
v -0.198843 0.028878 0.857692
v -0.490327 0.000000 1.000000
v -0.135066 0.000000 -0.865841
v 0.667150 0.000000 -0.013336
v 0.025863 0.000000 0.857692
v 0.568405 0.000000 -0.197726
v 0.384995 0.000000 0.700615
v 0.054708 0.000000 -0.715433
v 0.732727 0.000000 0.171795
v 0.250940 0.000000 -0.551876
v 0.718906 0.000000 0.354565
v 0.422627 0.000000 -0.378273
v 0.599487 0.000000 0.531872
vn 0.3612 -0.0000 -0.9325
vn 0.4611 -0.0000 -0.8873
vn 0.0911 -0.9734 -0.2104
vn 0.5764 -0.0000 -0.8172
vn 0.1390 -0.9627 -0.2321
vn 0.6452 -0.0000 -0.7640
vn 0.1828 -0.9555 -0.2316
vn 0.7326 -0.0000 -0.6806
vn 0.2072 -0.9541 -0.2162
vn 0.8533 -0.0000 -0.5213
vn 0.2221 -0.9616 -0.1612
vn 0.9473 -0.0000 -0.3203
vn 0.2200 -0.9716 -0.0872
vn 0.9983 -0.0000 0.0589
vn 0.2007 -0.9796 0.0040
vn 0.8967 -0.0000 0.4426
vn 0.1720 -0.9801 0.0990
vn 0.7226 -0.0000 0.6913
vn 0.1440 -0.9724 0.1838
vn 0.5135 -0.0000 0.8581
vn 0.1221 -0.9609 0.2483
vn 0.3909 -0.0000 0.9204
vn 0.1163 -0.9138 0.3892
vn 0.2658 -0.0000 0.9640
vn 0.1163 0.9138 0.3892
vn 0.1221 0.9609 0.2483
vn 0.1440 0.9724 0.1838
vn 0.1720 0.9801 0.0990
vn 0.2007 0.9796 0.0040
vn 0.2200 0.9716 -0.0872
vn 0.2221 0.9616 -0.1612
vn 0.2072 0.9541 -0.2162
vn 0.1828 0.9555 -0.2316
vn 0.1390 0.9627 -0.2321
vn 0.0911 0.9734 -0.2104
vt 1.000000 0.000000
vt 1.000000 0.083333
vt 0.000000 0.083333
vt 1.000000 0.166667
vt 0.000000 0.166667
vt 1.000000 0.250000
vt 0.000000 0.250000
vt 1.000000 0.333333
vt 0.000000 0.333333
vt 1.000000 0.416667
vt 0.000000 0.416667
vt 1.000000 0.500000
vt 0.000000 0.500000
vt 1.000000 0.583333
vt 0.000000 0.583333
vt 1.000000 0.666667
vt 0.000000 0.666667
vt 1.000000 0.750000
vt 0.000000 0.750000
vt 1.000000 0.833333
vt 0.000000 0.833333
vt 1.000000 0.916667
vt 0.000000 0.916667
vt 0.000000 1.000000
vt 0.000000 0.916667
vt 1.000000 1.000000
vt 0.000000 0.833333
vt 0.000000 0.750000
vt 0.000000 0.666667
vt 0.000000 0.583333
vt 0.000000 0.500000
vt 0.000000 0.416667
vt 0.000000 0.333333
vt 0.000000 0.250000
vt 0.000000 0.166667
vt 0.000000 0.083333
vt 0.000000 0.000000
s 1
f 1/1/1 25/2/2 2/3/3
f 25/2/2 30/4/4 4/5/5 2/3/3
f 30/4/4 32/6/6 6/7/7 4/5/5
f 32/6/6 34/8/8 8/9/9 6/7/7
f 34/8/8 28/10/10 10/11/11 8/9/9
f 28/10/10 26/12/12 12/13/13 10/11/11
f 26/12/12 31/14/14 14/15/15 12/13/13
f 31/14/14 33/16/16 16/17/17 14/15/15
f 33/16/16 35/18/18 18/19/19 16/17/17
f 35/18/18 29/20/20 20/21/21 18/19/19
f 29/20/20 27/22/22 22/23/23 20/21/21
f 27/22/22 24/24/24 22/23/23
f 23/25/25 24/26/24 27/22/22
f 21/27/26 23/25/25 27/22/22 29/20/20
f 19/28/27 21/27/26 29/20/20 35/18/18
f 17/29/28 19/28/27 35/18/18 33/16/16
f 15/30/29 17/29/28 33/16/16 31/14/14
f 13/31/30 15/30/29 31/14/14 26/12/12
f 11/32/31 13/31/30 26/12/12 28/10/10
f 9/33/32 11/32/31 28/10/10 34/8/8
f 7/34/33 9/33/32 34/8/8 32/6/6
f 5/35/34 7/34/33 32/6/6 30/4/4
f 3/36/35 5/35/34 30/4/4 25/2/2
f 1/37/1 3/36/35 25/2/2
